<?xml version="1.0" encoding="UTF-8" standalone="no"?>
<!-- Created with Inkscape (http://www.inkscape.org/) -->

<svg
   xmlns:dc="http://purl.org/dc/elements/1.1/"
   xmlns:cc="http://creativecommons.org/ns#"
   xmlns:rdf="http://www.w3.org/1999/02/22-rdf-syntax-ns#"
   xmlns:svg="http://www.w3.org/2000/svg"
   xmlns="http://www.w3.org/2000/svg"
   xmlns:sodipodi="http://sodipodi.sourceforge.net/DTD/sodipodi-0.dtd"
   xmlns:inkscape="http://www.inkscape.org/namespaces/inkscape"
   width="42.607086mm"
   height="41.554928mm"
   viewBox="0 0 42.607086 41.554928"
   version="1.1"
   id="svg4893"
   inkscape:version="0.92.2 5c3e80d, 2017-08-06"
   sodipodi:docname="github.svg">
  <defs
     id="defs4887" />
  <sodipodi:namedview
     id="base"
     pagecolor="#ffffff"
     bordercolor="#666666"
     borderopacity="1.0"
     inkscape:pageopacity="0.0"
     inkscape:pageshadow="2"
     inkscape:zoom="0.7"
     inkscape:cx="88.943941"
     inkscape:cy="-277.59686"
     inkscape:document-units="mm"
     inkscape:current-layer="layer1"
     showgrid="false"
     inkscape:window-width="1920"
     inkscape:window-height="1052"
     inkscape:window-x="0"
     inkscape:window-y="0"
     inkscape:window-maximized="1" />
  <metadata
     id="metadata4890">
    <rdf:RDF>
      <cc:Work
         rdf:about="">
        <dc:format>image/svg+xml</dc:format>
        <dc:type
           rdf:resource="http://purl.org/dc/dcmitype/StillImage" />
        <dc:title></dc:title>
      </cc:Work>
    </rdf:RDF>
  </metadata>
  <g
     inkscape:label="Layer 1"
     inkscape:groupmode="layer"
     id="layer1"
     transform="translate(-21.02979,-9.7493227)">
    <path
       d="m 42.333334,9.7493227 c -11.76408,0 -21.303544,9.5373473 -21.303544,21.3035443 0,9.41211 6.104114,17.397589 14.568663,20.214518 1.064684,0.197205 1.455561,-0.462137 1.455561,-1.024818 0,-0.507649 -0.01976,-2.186165 -0.02893,-3.966282 -5.926664,1.288698 -7.177261,-2.513542 -7.177261,-2.513542 -0.96908,-2.462035 -2.365375,-3.117143 -2.365375,-3.117143 -1.932869,-1.32221 0.145697,-1.295048 0.145697,-1.295048 2.139245,0.150283 3.265664,2.19569 3.265664,2.19569 1.900061,3.256491 4.983692,2.314926 6.199364,1.770591 0.191558,-1.37654 0.743303,-2.316691 1.35255,-2.848681 -4.731808,-0.538337 -9.705975,-2.365375 -9.705975,-10.528299 0,-2.325511 0.832203,-4.226278 2.194983,-5.718175 -0.221191,-0.536575 -0.950383,-2.703336 0.206728,-5.637742 0,0 1.788936,-0.572205 5.859639,2.184048 1.69933,-0.472017 3.52178,-0.708731 5.332236,-0.717197 1.810455,0.0085 3.634316,0.24518 5.336823,0.717197 4.066116,-2.756253 5.852583,-2.184048 5.852583,-2.184048 1.159579,2.934406 0.430387,5.101167 0.209195,5.637742 1.365957,1.491897 2.192163,3.392664 2.192163,5.718175 0,8.18268 -4.983691,9.983964 -9.727495,10.511365 0.764117,0.661107 1.444979,1.957565 1.444979,3.945115 0,2.850444 -0.02434,5.144559 -0.02434,5.846234 0,0.567266 0.383117,1.231193 1.462969,1.02235 8.460314,-2.820107 14.556666,-10.802761 14.556666,-20.21205 0,-11.766197 -9.538052,-21.3035443 -21.303543,-21.3035443"
       style="display:inline;fill:#1b1817;fill-opacity:1;fill-rule:evenodd;stroke:none;stroke-width:0.35277775"
       id="path28"
       inkscape:connector-curvature="0" />
    <g
       id="g30"
       transform="matrix(0.35277777,0,0,-0.35277777,29.098664,40.336286)"
       style="display:inline">
      <path
         d="m 0,0 c -0.133,-0.301 -0.605,-0.391 -1.035,-0.185 -0.439,0.198 -0.684,0.607 -0.542,0.908 0.13,0.308 0.602,0.394 1.04,0.188 C -0.099,0.714 0.151,0.301 0,0"
         style="fill:#1b1817;fill-opacity:1;fill-rule:nonzero;stroke:none"
         id="path32"
         inkscape:connector-curvature="0" />
    </g>
    <g
       style="display:inline"
       id="g34"
       transform="matrix(0.35277777,0,0,-0.35277777,29.961663,41.29884)">
      <path
         d="M 0,0 C -0.288,-0.267 -0.852,-0.143 -1.233,0.279 -1.629,0.7 -1.702,1.264 -1.41,1.534 -1.113,1.801 -0.567,1.676 -0.172,1.255 0.224,0.829 0.301,0.271 0,0"
         style="fill:#1b1817;fill-opacity:1;fill-rule:nonzero;stroke:none"
         id="path36"
         inkscape:connector-curvature="0" />
    </g>
    <g
       style="display:inline"
       id="g38"
       transform="matrix(0.35277777,0,0,-0.35277777,30.801594,42.525623)">
      <path
         d="M 0,0 C -0.37,-0.258 -0.976,-0.017 -1.35,0.52 -1.72,1.058 -1.72,1.702 -1.341,1.96 -0.967,2.218 -0.37,1.985 0.009,1.453 0.378,0.907 0.378,0.263 0,0"
         style="fill:#1b1817;fill-opacity:1;fill-rule:nonzero;stroke:none"
         id="path40"
         inkscape:connector-curvature="0" />
    </g>
    <g
       style="display:inline"
       id="g42"
       transform="matrix(0.35277777,0,0,-0.35277777,31.952248,43.711099)">
      <path
         d="M 0,0 C -0.331,-0.365 -1.036,-0.267 -1.552,0.232 -2.08,0.718 -2.227,1.409 -1.896,1.774 -1.56,2.14 -0.851,2.037 -0.331,1.543 0.193,1.057 0.352,0.361 0,0"
         style="fill:#1b1817;fill-opacity:1;fill-rule:nonzero;stroke:none"
         id="path44"
         inkscape:connector-curvature="0" />
    </g>
    <g
       style="display:inline"
       id="g46"
       transform="matrix(0.35277777,0,0,-0.35277777,33.539748,44.399402)">
      <path
         d="m 0,0 c -0.147,-0.473 -0.825,-0.687 -1.509,-0.486 -0.683,0.207 -1.13,0.76 -0.992,1.238 0.142,0.476 0.824,0.7 1.513,0.485 C -0.306,1.031 0.142,0.481 0,0"
         style="fill:#1b1817;fill-opacity:1;fill-rule:nonzero;stroke:none"
         id="path48"
         inkscape:connector-curvature="0" />
    </g>
    <g
       style="display:inline"
       id="g50"
       transform="matrix(0.35277777,0,0,-0.35277777,35.283318,44.526897)">
      <path
         d="m 0,0 c 0.017,-0.498 -0.563,-0.911 -1.281,-0.92 -0.722,-0.016 -1.307,0.387 -1.315,0.877 0,0.503 0.568,0.911 1.289,0.924 C -0.589,0.895 0,0.494 0,0"
         style="fill:#1b1817;fill-opacity:1;fill-rule:nonzero;stroke:none"
         id="path52"
         inkscape:connector-curvature="0" />
    </g>
    <g
       style="display:inline"
       id="g54"
       transform="matrix(0.35277777,0,0,-0.35277777,36.9056,44.250918)">
      <path
         d="m 0,0 c 0.086,-0.485 -0.413,-0.984 -1.126,-1.117 -0.701,-0.129 -1.35,0.172 -1.439,0.653 -0.087,0.498 0.42,0.997 1.121,1.126 C -0.73,0.786 -0.091,0.494 0,0"
         style="fill:#1b1817;fill-opacity:1;fill-rule:nonzero;stroke:none"
         id="path56"
         inkscape:connector-curvature="0" />
    </g>
  </g>
</svg>
